<mxfile host="app.diagrams.net" modified="2023-06-27T05:42:40.636Z" agent="Mozilla/5.0 (Windows NT 10.0; Win64; x64; rv:109.0) Gecko/20100101 Firefox/113.0" etag="1NZtumnxcI9IoDysetR2" version="21.5.0" type="github">
  <diagram name="Page-1" id="2YBvvXClWsGukQMizWep">
    <mxGraphModel dx="2058" dy="1125" grid="0" gridSize="10" guides="1" tooltips="1" connect="1" arrows="1" fold="1" page="1" pageScale="1" pageWidth="850" pageHeight="1100" math="0" shadow="1">
      <root>
        <mxCell id="0" />
        <mxCell id="1" parent="0" />
        <mxCell id="r1EiKrxkLPuxWX9-A6J4-25" value="sc_main()" style="rounded=0;whiteSpace=wrap;html=1;sketch=1;hachureGap=4;jiggle=2;curveFitting=1;fontFamily=Architects Daughter;fontSource=https%3A%2F%2Ffonts.googleapis.com%2Fcss%3Ffamily%3DArchitects%2BDaughter;fontSize=20;" vertex="1" parent="1">
          <mxGeometry x="365" y="498" width="120" height="32" as="geometry" />
        </mxCell>
        <mxCell id="r1EiKrxkLPuxWX9-A6J4-26" value="&lt;div&gt;top_inst()&lt;/div&gt;" style="rounded=0;whiteSpace=wrap;html=1;sketch=1;hachureGap=4;jiggle=2;curveFitting=1;fontFamily=Architects Daughter;fontSource=https%3A%2F%2Ffonts.googleapis.com%2Fcss%3Ffamily%3DArchitects%2BDaughter;fontSize=20;" vertex="1" parent="1">
          <mxGeometry x="350" y="573" width="150" height="32" as="geometry" />
        </mxCell>
        <mxCell id="r1EiKrxkLPuxWX9-A6J4-56" style="edgeStyle=orthogonalEdgeStyle;rounded=0;sketch=1;hachureGap=4;jiggle=2;curveFitting=1;orthogonalLoop=1;jettySize=auto;html=1;exitX=0.25;exitY=1;exitDx=0;exitDy=0;entryX=1.113;entryY=-0.028;entryDx=0;entryDy=0;entryPerimeter=0;fontFamily=Architects Daughter;fontSource=https%3A%2F%2Ffonts.googleapis.com%2Fcss%3Ffamily%3DArchitects%2BDaughter;fontSize=16;" edge="1" parent="1" source="r1EiKrxkLPuxWX9-A6J4-28" target="r1EiKrxkLPuxWX9-A6J4-43">
          <mxGeometry relative="1" as="geometry" />
        </mxCell>
        <mxCell id="r1EiKrxkLPuxWX9-A6J4-28" value="scanner_inst()" style="rounded=0;whiteSpace=wrap;html=1;sketch=1;hachureGap=4;jiggle=2;curveFitting=1;fontFamily=Architects Daughter;fontSource=https%3A%2F%2Ffonts.googleapis.com%2Fcss%3Ffamily%3DArchitects%2BDaughter;fontSize=20;" vertex="1" parent="1">
          <mxGeometry x="165" y="652" width="200" height="32" as="geometry" />
        </mxCell>
        <mxCell id="r1EiKrxkLPuxWX9-A6J4-53" style="edgeStyle=orthogonalEdgeStyle;rounded=0;sketch=1;hachureGap=4;jiggle=2;curveFitting=1;orthogonalLoop=1;jettySize=auto;html=1;exitX=0.25;exitY=1;exitDx=0;exitDy=0;entryX=0.823;entryY=0.111;entryDx=0;entryDy=0;entryPerimeter=0;fontFamily=Architects Daughter;fontSource=https%3A%2F%2Ffonts.googleapis.com%2Fcss%3Ffamily%3DArchitects%2BDaughter;fontSize=16;" edge="1" parent="1" source="r1EiKrxkLPuxWX9-A6J4-29" target="r1EiKrxkLPuxWX9-A6J4-39">
          <mxGeometry relative="1" as="geometry" />
        </mxCell>
        <mxCell id="r1EiKrxkLPuxWX9-A6J4-29" value="conveyor_inst()" style="rounded=0;whiteSpace=wrap;html=1;sketch=1;hachureGap=4;jiggle=2;curveFitting=1;fontFamily=Architects Daughter;fontSource=https%3A%2F%2Ffonts.googleapis.com%2Fcss%3Ffamily%3DArchitects%2BDaughter;fontSize=20;" vertex="1" parent="1">
          <mxGeometry x="485" y="652" width="200" height="32" as="geometry" />
        </mxCell>
        <mxCell id="r1EiKrxkLPuxWX9-A6J4-51" style="edgeStyle=orthogonalEdgeStyle;rounded=0;sketch=1;hachureGap=4;jiggle=2;curveFitting=1;orthogonalLoop=1;jettySize=auto;html=1;exitX=0.5;exitY=1;exitDx=0;exitDy=0;entryX=0.654;entryY=0;entryDx=0;entryDy=0;entryPerimeter=0;fontFamily=Architects Daughter;fontSource=https%3A%2F%2Ffonts.googleapis.com%2Fcss%3Ffamily%3DArchitects%2BDaughter;fontSize=16;" edge="1" parent="1" source="r1EiKrxkLPuxWX9-A6J4-34" target="r1EiKrxkLPuxWX9-A6J4-48">
          <mxGeometry relative="1" as="geometry" />
        </mxCell>
        <mxCell id="r1EiKrxkLPuxWX9-A6J4-34" value="" style="swimlane;startSize=0;sketch=1;hachureGap=4;jiggle=2;curveFitting=1;fontFamily=Architects Daughter;fontSource=https%3A%2F%2Ffonts.googleapis.com%2Fcss%3Ffamily%3DArchitects%2BDaughter;fontSize=20;" vertex="1" parent="1">
          <mxGeometry x="455" y="719" width="124" height="118" as="geometry">
            <mxRectangle x="437" y="726" width="50" height="44" as="alternateBounds" />
          </mxGeometry>
        </mxCell>
        <mxCell id="r1EiKrxkLPuxWX9-A6J4-31" value="Package" style="shape=folder;fontStyle=1;tabWidth=110;tabHeight=30;tabPosition=left;html=1;boundedLbl=1;labelInHeader=1;container=1;collapsible=0;whiteSpace=wrap;sketch=1;hachureGap=4;jiggle=2;curveFitting=1;fontFamily=Architects Daughter;fontSource=https%3A%2F%2Ffonts.googleapis.com%2Fcss%3Ffamily%3DArchitects%2BDaughter;fontSize=20;" vertex="1" parent="r1EiKrxkLPuxWX9-A6J4-34">
          <mxGeometry x="14" y="34" width="100" height="60" as="geometry" />
        </mxCell>
        <mxCell id="r1EiKrxkLPuxWX9-A6J4-32" value="&lt;div&gt;Status&lt;/div&gt;" style="html=1;strokeColor=none;resizeWidth=1;resizeHeight=1;fillColor=none;part=1;connectable=0;allowArrows=0;deletable=0;whiteSpace=wrap;sketch=1;hachureGap=4;jiggle=2;curveFitting=1;fontFamily=Architects Daughter;fontSource=https%3A%2F%2Ffonts.googleapis.com%2Fcss%3Ffamily%3DArchitects%2BDaughter;fontSize=20;" vertex="1" parent="r1EiKrxkLPuxWX9-A6J4-31">
          <mxGeometry width="100" height="42" relative="1" as="geometry">
            <mxPoint y="30" as="offset" />
          </mxGeometry>
        </mxCell>
        <mxCell id="r1EiKrxkLPuxWX9-A6J4-39" value="FIFO" style="text;html=1;align=center;verticalAlign=middle;resizable=0;points=[];autosize=1;strokeColor=none;fillColor=none;fontSize=20;fontFamily=Architects Daughter;" vertex="1" parent="r1EiKrxkLPuxWX9-A6J4-34">
          <mxGeometry x="31" width="62" height="36" as="geometry" />
        </mxCell>
        <mxCell id="r1EiKrxkLPuxWX9-A6J4-54" style="edgeStyle=orthogonalEdgeStyle;rounded=0;sketch=1;hachureGap=4;jiggle=2;curveFitting=1;orthogonalLoop=1;jettySize=auto;html=1;exitX=0.25;exitY=0;exitDx=0;exitDy=0;entryX=0.81;entryY=1.156;entryDx=0;entryDy=0;entryPerimeter=0;fontFamily=Architects Daughter;fontSource=https%3A%2F%2Ffonts.googleapis.com%2Fcss%3Ffamily%3DArchitects%2BDaughter;fontSize=16;" edge="1" parent="1" source="r1EiKrxkLPuxWX9-A6J4-35" target="r1EiKrxkLPuxWX9-A6J4-29">
          <mxGeometry relative="1" as="geometry" />
        </mxCell>
        <mxCell id="r1EiKrxkLPuxWX9-A6J4-35" value="" style="swimlane;startSize=0;sketch=1;hachureGap=4;jiggle=2;curveFitting=1;fontFamily=Architects Daughter;fontSource=https%3A%2F%2Ffonts.googleapis.com%2Fcss%3Ffamily%3DArchitects%2BDaughter;fontSize=20;" vertex="1" parent="1">
          <mxGeometry x="620" y="720" width="124" height="118" as="geometry">
            <mxRectangle x="611" y="726" width="50" height="44" as="alternateBounds" />
          </mxGeometry>
        </mxCell>
        <mxCell id="r1EiKrxkLPuxWX9-A6J4-36" value="Package" style="shape=folder;fontStyle=1;tabWidth=110;tabHeight=30;tabPosition=left;html=1;boundedLbl=1;labelInHeader=1;container=1;collapsible=0;whiteSpace=wrap;sketch=1;hachureGap=4;jiggle=2;curveFitting=1;fontFamily=Architects Daughter;fontSource=https%3A%2F%2Ffonts.googleapis.com%2Fcss%3Ffamily%3DArchitects%2BDaughter;fontSize=20;" vertex="1" parent="r1EiKrxkLPuxWX9-A6J4-35">
          <mxGeometry x="14" y="34" width="100" height="60" as="geometry" />
        </mxCell>
        <mxCell id="r1EiKrxkLPuxWX9-A6J4-37" value="Control" style="html=1;strokeColor=none;resizeWidth=1;resizeHeight=1;fillColor=none;part=1;connectable=0;allowArrows=0;deletable=0;whiteSpace=wrap;sketch=1;hachureGap=4;jiggle=2;curveFitting=1;fontFamily=Architects Daughter;fontSource=https%3A%2F%2Ffonts.googleapis.com%2Fcss%3Ffamily%3DArchitects%2BDaughter;fontSize=20;" vertex="1" parent="r1EiKrxkLPuxWX9-A6J4-36">
          <mxGeometry width="100" height="42" relative="1" as="geometry">
            <mxPoint y="30" as="offset" />
          </mxGeometry>
        </mxCell>
        <mxCell id="r1EiKrxkLPuxWX9-A6J4-38" value="FIFO" style="text;html=1;align=center;verticalAlign=middle;resizable=0;points=[];autosize=1;strokeColor=none;fillColor=none;fontSize=20;fontFamily=Architects Daughter;" vertex="1" parent="r1EiKrxkLPuxWX9-A6J4-35">
          <mxGeometry x="31" width="62" height="36" as="geometry" />
        </mxCell>
        <mxCell id="r1EiKrxkLPuxWX9-A6J4-49" style="edgeStyle=orthogonalEdgeStyle;rounded=0;sketch=1;hachureGap=4;jiggle=2;curveFitting=1;orthogonalLoop=1;jettySize=auto;html=1;exitX=0.5;exitY=1;exitDx=0;exitDy=0;entryX=0.024;entryY=-0.017;entryDx=0;entryDy=0;entryPerimeter=0;fontFamily=Architects Daughter;fontSource=https%3A%2F%2Ffonts.googleapis.com%2Fcss%3Ffamily%3DArchitects%2BDaughter;fontSize=16;" edge="1" parent="1" source="r1EiKrxkLPuxWX9-A6J4-40" target="r1EiKrxkLPuxWX9-A6J4-48">
          <mxGeometry relative="1" as="geometry" />
        </mxCell>
        <mxCell id="r1EiKrxkLPuxWX9-A6J4-40" value="" style="swimlane;startSize=0;sketch=1;hachureGap=4;jiggle=2;curveFitting=1;fontFamily=Architects Daughter;fontSource=https%3A%2F%2Ffonts.googleapis.com%2Fcss%3Ffamily%3DArchitects%2BDaughter;fontSize=20;" vertex="1" parent="1">
          <mxGeometry x="112" y="715" width="124" height="118" as="geometry">
            <mxRectangle x="112" y="715" width="50" height="44" as="alternateBounds" />
          </mxGeometry>
        </mxCell>
        <mxCell id="r1EiKrxkLPuxWX9-A6J4-41" value="Package" style="shape=folder;fontStyle=1;tabWidth=110;tabHeight=30;tabPosition=left;html=1;boundedLbl=1;labelInHeader=1;container=1;collapsible=0;whiteSpace=wrap;sketch=1;hachureGap=4;jiggle=2;curveFitting=1;fontFamily=Architects Daughter;fontSource=https%3A%2F%2Ffonts.googleapis.com%2Fcss%3Ffamily%3DArchitects%2BDaughter;fontSize=20;" vertex="1" parent="r1EiKrxkLPuxWX9-A6J4-40">
          <mxGeometry x="14" y="34" width="100" height="60" as="geometry" />
        </mxCell>
        <mxCell id="r1EiKrxkLPuxWX9-A6J4-42" value="&lt;div&gt;Status&lt;/div&gt;" style="html=1;strokeColor=none;resizeWidth=1;resizeHeight=1;fillColor=none;part=1;connectable=0;allowArrows=0;deletable=0;whiteSpace=wrap;sketch=1;hachureGap=4;jiggle=2;curveFitting=1;fontFamily=Architects Daughter;fontSource=https%3A%2F%2Ffonts.googleapis.com%2Fcss%3Ffamily%3DArchitects%2BDaughter;fontSize=20;" vertex="1" parent="r1EiKrxkLPuxWX9-A6J4-41">
          <mxGeometry width="100" height="42" relative="1" as="geometry">
            <mxPoint y="30" as="offset" />
          </mxGeometry>
        </mxCell>
        <mxCell id="r1EiKrxkLPuxWX9-A6J4-43" value="FIFO" style="text;html=1;align=center;verticalAlign=middle;resizable=0;points=[];autosize=1;strokeColor=none;fillColor=none;fontSize=20;fontFamily=Architects Daughter;" vertex="1" parent="r1EiKrxkLPuxWX9-A6J4-40">
          <mxGeometry x="31" width="62" height="36" as="geometry" />
        </mxCell>
        <mxCell id="r1EiKrxkLPuxWX9-A6J4-55" style="edgeStyle=orthogonalEdgeStyle;rounded=0;sketch=1;hachureGap=4;jiggle=2;curveFitting=1;orthogonalLoop=1;jettySize=auto;html=1;exitX=0.25;exitY=0;exitDx=0;exitDy=0;entryX=0.715;entryY=1.125;entryDx=0;entryDy=0;entryPerimeter=0;fontFamily=Architects Daughter;fontSource=https%3A%2F%2Ffonts.googleapis.com%2Fcss%3Ffamily%3DArchitects%2BDaughter;fontSize=16;" edge="1" parent="1" source="r1EiKrxkLPuxWX9-A6J4-44" target="r1EiKrxkLPuxWX9-A6J4-28">
          <mxGeometry relative="1" as="geometry" />
        </mxCell>
        <mxCell id="r1EiKrxkLPuxWX9-A6J4-44" value="" style="swimlane;startSize=0;sketch=1;hachureGap=4;jiggle=2;curveFitting=1;fontFamily=Architects Daughter;fontSource=https%3A%2F%2Ffonts.googleapis.com%2Fcss%3Ffamily%3DArchitects%2BDaughter;fontSize=20;" vertex="1" parent="1">
          <mxGeometry x="279" y="720" width="124" height="118" as="geometry">
            <mxRectangle x="611" y="726" width="50" height="44" as="alternateBounds" />
          </mxGeometry>
        </mxCell>
        <mxCell id="r1EiKrxkLPuxWX9-A6J4-45" value="Package" style="shape=folder;fontStyle=1;tabWidth=110;tabHeight=30;tabPosition=left;html=1;boundedLbl=1;labelInHeader=1;container=1;collapsible=0;whiteSpace=wrap;sketch=1;hachureGap=4;jiggle=2;curveFitting=1;fontFamily=Architects Daughter;fontSource=https%3A%2F%2Ffonts.googleapis.com%2Fcss%3Ffamily%3DArchitects%2BDaughter;fontSize=20;" vertex="1" parent="r1EiKrxkLPuxWX9-A6J4-44">
          <mxGeometry x="14" y="34" width="100" height="60" as="geometry" />
        </mxCell>
        <mxCell id="r1EiKrxkLPuxWX9-A6J4-46" value="Control" style="html=1;strokeColor=none;resizeWidth=1;resizeHeight=1;fillColor=none;part=1;connectable=0;allowArrows=0;deletable=0;whiteSpace=wrap;sketch=1;hachureGap=4;jiggle=2;curveFitting=1;fontFamily=Architects Daughter;fontSource=https%3A%2F%2Ffonts.googleapis.com%2Fcss%3Ffamily%3DArchitects%2BDaughter;fontSize=20;" vertex="1" parent="r1EiKrxkLPuxWX9-A6J4-45">
          <mxGeometry width="100" height="42" relative="1" as="geometry">
            <mxPoint y="30" as="offset" />
          </mxGeometry>
        </mxCell>
        <mxCell id="r1EiKrxkLPuxWX9-A6J4-47" value="FIFO" style="text;html=1;align=center;verticalAlign=middle;resizable=0;points=[];autosize=1;strokeColor=none;fillColor=none;fontSize=20;fontFamily=Architects Daughter;" vertex="1" parent="r1EiKrxkLPuxWX9-A6J4-44">
          <mxGeometry x="31" width="62" height="36" as="geometry" />
        </mxCell>
        <mxCell id="r1EiKrxkLPuxWX9-A6J4-50" style="edgeStyle=orthogonalEdgeStyle;rounded=0;sketch=1;hachureGap=4;jiggle=2;curveFitting=1;orthogonalLoop=1;jettySize=auto;html=1;entryX=0.5;entryY=1;entryDx=0;entryDy=0;fontFamily=Architects Daughter;fontSource=https%3A%2F%2Ffonts.googleapis.com%2Fcss%3Ffamily%3DArchitects%2BDaughter;fontSize=16;" edge="1" parent="1" target="r1EiKrxkLPuxWX9-A6J4-44">
          <mxGeometry relative="1" as="geometry">
            <mxPoint x="341" y="887" as="sourcePoint" />
          </mxGeometry>
        </mxCell>
        <mxCell id="r1EiKrxkLPuxWX9-A6J4-52" style="edgeStyle=orthogonalEdgeStyle;rounded=0;sketch=1;hachureGap=4;jiggle=2;curveFitting=1;orthogonalLoop=1;jettySize=auto;html=1;exitX=0.959;exitY=0.017;exitDx=0;exitDy=0;entryX=0.5;entryY=1;entryDx=0;entryDy=0;fontFamily=Architects Daughter;fontSource=https%3A%2F%2Ffonts.googleapis.com%2Fcss%3Ffamily%3DArchitects%2BDaughter;fontSize=16;exitPerimeter=0;" edge="1" parent="1" source="r1EiKrxkLPuxWX9-A6J4-48" target="r1EiKrxkLPuxWX9-A6J4-35">
          <mxGeometry relative="1" as="geometry">
            <Array as="points">
              <mxPoint x="683" y="864" />
              <mxPoint x="682" y="864" />
            </Array>
          </mxGeometry>
        </mxCell>
        <mxCell id="r1EiKrxkLPuxWX9-A6J4-48" value="Control_system_inst()" style="rounded=0;whiteSpace=wrap;html=1;sketch=1;hachureGap=4;jiggle=2;curveFitting=1;fontFamily=Architects Daughter;fontSource=https%3A%2F%2Ffonts.googleapis.com%2Fcss%3Ffamily%3DArchitects%2BDaughter;fontSize=20;" vertex="1" parent="1">
          <mxGeometry x="161" y="890" width="544" height="60" as="geometry" />
        </mxCell>
        <mxCell id="r1EiKrxkLPuxWX9-A6J4-57" value="" style="endArrow=none;html=1;rounded=0;sketch=1;hachureGap=4;jiggle=2;curveFitting=1;fontFamily=Architects Daughter;fontSource=https%3A%2F%2Ffonts.googleapis.com%2Fcss%3Ffamily%3DArchitects%2BDaughter;fontSize=16;" edge="1" parent="1">
          <mxGeometry width="50" height="50" relative="1" as="geometry">
            <mxPoint x="165" y="544" as="sourcePoint" />
            <mxPoint x="680" y="546" as="targetPoint" />
          </mxGeometry>
        </mxCell>
        <mxCell id="r1EiKrxkLPuxWX9-A6J4-58" value="" style="endArrow=none;html=1;rounded=0;sketch=1;hachureGap=4;jiggle=2;curveFitting=1;fontFamily=Architects Daughter;fontSource=https%3A%2F%2Ffonts.googleapis.com%2Fcss%3Ffamily%3DArchitects%2BDaughter;fontSize=16;" edge="1" parent="1">
          <mxGeometry width="50" height="50" relative="1" as="geometry">
            <mxPoint x="165" y="628" as="sourcePoint" />
            <mxPoint x="680" y="630" as="targetPoint" />
          </mxGeometry>
        </mxCell>
      </root>
    </mxGraphModel>
  </diagram>
</mxfile>
